<?xml version="1.0" encoding="UTF-8"?><svg id="Nariz" xmlns="http://www.w3.org/2000/svg" viewBox="0 0 2048 2048"><defs><style>.cls-1{fill:#3fa9f5;}</style></defs><g id="NC"><path class="cls-1" d="M1087,1101.9c2.8,2,5,5.8,6.8,8.7,11.8,19.8,21.3,52.9,9.7,74.3-2,3.7-5.1,6.3-6.5,10,4.2-.8,8.3-2.3,12.6-2.9,11.2-1.5,40.1-1.8,48.3-6.7,13.3-7.9,2.5-38.3-3.8-49.1l-12.2-17.3c1.5-1.4,11.7,9,13,10.5,12.8,14.5,21.8,35.3,19.9,54.9-4.7,46.1-57.3,37.7-88.6,52.4-20.4,9.7-33.3,27.8-57.9,30.1-34.8,3.2-44.6-17.6-72.1-28.6-20.5-8.2-43.9-9.2-63.6-18.4-40.8-18.9-25.9-74.7,3.9-96.8-8.5,14.3-18.8,30-18.6,47.5.4,30.9,50,22.1,70.1,26.5-3.9-5.3-8.8-9.8-11.7-15.8-13.3-27.4,4-51.4,18.9-73.5l4.8-5.7c-7,19.6-21.4,56.9-10.8,76.3,5.1,9.5,32,32.9,41.8,38.2,11.7,6.2,33,11.5,45.7,7.7,7.4-2.2,41-29.1,47.3-35.7,23.4-24.1,10.2-58.4,3-86.5Z"/><path class="cls-1" d="M1071.9,1059.8c-2.6.2-1.7.1-2-1.5-1.4-7.5-2.2-17.2-3-25-2.2-21.2-4.3-44.8-5-66-.9-26.7-.8-55.2,3.1-81.5l4.5,15c9.5,41,14.4,72.2,9.4,114.4-1.8,15-4.9,29.7-6.9,44.6Z"/><path class="cls-1" d="M969.9,1055.8c-1.4.2-1.5-2.7-1.7-3.8-7.4-44.1-9-111.4,5.6-153.9s.3-3.1,2.1-3.4c6.6,53.7,2.2,107.8-6,161Z"/></g></svg>