<?xml version="1.0" encoding="UTF-8"?><svg id="Nariz" xmlns="http://www.w3.org/2000/svg" viewBox="0 0 2048 2048"><defs><style>.cls-1{fill:#3fa9f5;}</style></defs><g id="NE"><path class="cls-1" d="M1101.6,1220.7c9.6-1.1,26.7-.6,30.1,10-1.4,5.6-31,7.7-37.1,9-16.8,3.7-20.6,12.3-33.9,20.1-23.4,13.8-51.7,13.8-75.2.4s-16.2-13.4-23.7-16.3c-11.2-4.4-25.7-3.3-37.6-6.4-18.6-4.8-9-11.6,3.6-14.7,16.5-4,34,2.5,48,11.1,15.8,9.7,19.7,18.6,40.7,20.3,44.2,3.5,49.7-29.6,85.1-33.6Z"/><path class="cls-1" d="M933.9,1117.4c6.1-24.3,11.2-48.9,14.8-73.7,6.1-41.6,8.6-79.7,1.9-121.5-2-12.6-7.1-26.4-8.6-38.4-.1-1.1-.9-3.6.9-3.4,4.7,9.4,9.2,18.9,12.8,28.7,18.6,51.8,17.1,113.1-.5,165-5,14.8-12.2,30.6-21.3,43.2Z"/><path class="cls-1" d="M1144.9,1236.4c19.4-16.3,30.9-31.3,25.6-58-3.2-15.7-13.3-28.4-21.1-41.9,19.5,14.1,33.2,33.4,31.5,58.5-1.4,20.5-16.8,36.3-36,41.5Z"/><path class="cls-1" d="M896.9,1236.4l-.5,2c-24.8-7.8-37.4-26.9-34.2-53.2,2.1-17.8,16.9-36,31.2-45.8-2.9,5.8-7.4,10.7-10.7,16.3-17.4,30.3-17.5,60.8,14.2,80.7Z"/></g></svg>