<?xml version="1.0" encoding="UTF-8"?><svg id="Nariz" xmlns="http://www.w3.org/2000/svg" viewBox="0 0 2048 2048"><defs><style>.cls-1{fill:#ff7bac;}.cls-2{fill:#3fa9f5;}</style></defs><g id="NI"><path class="cls-1" d="M869.1,1211.3s16.5-47,30.5-56.1c14-9.1,39.2-16.6,39.2-16.6,0,0,35.6-174.3,33.3-192-4.7-36.8-44.5-65-38.2-72,6.3-7,120.9-28.7,120.9-28.7,0,0,75.7-4.7,70.6,5.1-24.7,47.1-55.5,90-47.1,106.1s34.3,185.6,44,196.1,50.6,65.4,39.4,78.1c-11.2,12.8-71.8,48.2-80.2,54.5-8.4,6.3-45.8,28.2-64.8,27.5-19-.7-58.5-38.9-77.3-46.6-18.9-7.7-42.7-11.7-51.3-20s-19.1-35.4-19.1-35.4Z"/><path class="cls-2" d="M1167.1,1158.6c-14-19.9-44.5-28.7-47.5-45.4,13-47-38-157.5-32.9-180,2.3-10.1,26.6-41.9,31-51.2,1.3-2.7,2.7-5.4,4.5-7.9,3.7-5.4,7.6-10.5,11.7-15.2-5.8,0-10.8-.3-14.5-1.4-6.7,6.7-14.9,13.3-21,20.5-17.9,21.1-34.9,53-37,81-2.9,38.7,18.5,74.7,27.8,111.3l-2.6,64.5c8.4,9.4,18.3,16.5,21.5,29.5,1.6,6.6.7,13.2,2.1,19.7l-1.8,34.5,8.4-2.8c8.5-4.5,17.1-1.6,18.1-.5,6.6,7.3,3.6,5,5.4,14.3,3.1,6.5,7.9,7.9,7.1,9-9.2,3.5-19.3,4.6-28.5,8-40.1,14.8-51.3,60.1-102,56.1-38.2-3-58.5-40.7-92.9-53.1-16.2-5.9-38.2-3.8-45.6-23.4-9.5-25.2,2.9-54.9,23-71.1-12.3.3-22.6,14.5-28.4,24.6-9.1,16-12.4,34.4-6.3,52.2,10.1,29.4,37.8,26.1,61.1,36.9,7.5,3.5,17.6,9.7,21.6,16.9,1.8.2,2.7.2,4.4,1.1,6,3.3,14.5,13,21.3,17.7,35.5,24.3,70.1,20.8,102.3-6.3,4.9-4.1,17.8-18.3,22.7-19.3,0,0,0,0,0,0,1.1-1.1,2.2-2.1,3.3-3.1,12.9-12.3,30.5-20.2,48.4-22.5,9.5-4.3,17.3-9.6,22.4-20.2,12.2-25.7,14.1-44.2-7.1-74.4Z"/><path class="cls-2" d="M947.3,1233.5c-1.7-10.3-4.4-19.9-4-30.5.6-15.7,7.1-29.7,11.5-44.5-23.7,17.5-34.1,47.3-12.5,71.4.7.8,4,4.7,5,3.5Z"/><path class="cls-2" d="M953.7,918.5c-1.2-5.8-2.8-11.8-4.4-17.9,5,6.6,9.2,15.6,12,23.5,16.5,46.1-6.8,69.9-11,113-2.7,27.9,0,68.1,6.7,95.3.5,1.8.6,7,3.3,6.2-.7-4.3.8-8.4,1-12.5,1.3-23.7-1-47.2,1-71,4.7-55.5,34.2-90.8-.6-145.4-4.6-7.3-10.6-13.4-15.8-20.2-1-1.3-1.9-2.6-2.8-3.9,1.9,6.1,3.5,12.2,5.4,18.3,1.6,4.9,3.5,9.7,5.2,14.6ZM948.8,898.5c.6.3.6.7,0,1v-1Z"/></g></svg>