<?xml version="1.0" encoding="UTF-8"?><svg id="Pelo" xmlns="http://www.w3.org/2000/svg" viewBox="0 0 2048 2048"><defs><style>.cls-1{fill:#662d91;}.cls-2{fill:#ff1d25;}</style></defs><g id="PJ"><path class="cls-2" d="M1645.1,684.8c46.9-33.3,37.9-76.3,5-116.1,31.3-74.6,5.2-150-70.9-181.6,25.4-61,.6-127.4-62.8-150.7-16.8-10.5-33.9-19.1-54.3-19.2,6.5-44.9-27-92.1-75-88,24.4,13.3,57.6,34.2,39.9,69.4-37.6-46.1-84.2-127.1-183.2-89.5-1.1-.3-8.6-9-9.5-10.5-7.3-26.4-25.6-49.9-52.9-58.1-42.2-15-87-.9-119.6,27.7-80.3-63.8-177.5-38.3-242.4,32.9-68.4-28.7-149.2-8.5-175.2,66.7-1.9,1.3-15.8-2.3-19.6-2.5-12.8-4.4-64.8,11.8-33.1,12.1,61.1,9.7-44.7,23.3-46.4,63.9-3.2-21.7,19.1-44.9,39-53-58.5,2.5-107.6,59.1-85,118-75.8,1.7-123.6,74.2-88.1,143.3-26.2,27.9-31.3,68.2-12.9,101.7-22.5,4.2-31.7-23.9-30-42-19.9,26-6.1,76.4,29,85-36,33.5-17.6,72.4-10.9,112.4.4,3.8,3.9,10.7,3.8,13.1-37.9,48,13.3,67.2,2,109.9,1.1,17.2,11.5,48.3,31.6,39.4,16.9,24.8,29.3,53.9,54,72.1-1.9,48.4,13,96,31.4,140,9.4-88.9,19.3-179.4,21.3-269.2,84.2-156.3,14.8-182,72.7-301,106.5-4.4,89.6-65.7,157.5-113.8,99-36.8,171.6,92.7,265.5,22.5,36.9-22.4,51.4-40.1,99.6-35.4,26.1,3.2,21.5,3.2,2.5,16,42.3-7.7,84.2-16.9,127.2-7.7,55.5,3.9,42.8,60.8,70.3,94.7,120.7,89.5,139-25.4,129.5,194.5,57,125.6,57.3,262.2,71,398.5,18.5-44.5,33.3-91.1,31.2-139.8,25.1-16.9,38.3-45.4,48.8-72.8,31.8,12.7,39.2-31.2,49-53-14.8-30.7-12.9-27.4-6.9-60.9-7.7-19.7-7.7-38.1,6.7-10.7,5.4,8.2,2.3,24.6,3.2,33.3,19.7-30.6,16.6-68.5-13-91.5ZM1651.1,612.8l2-1.5c10.1,17.7,9.8,34-6,48l4-46.5ZM464.1,346.8c-19.6,11.2-31.3,27.7-34.8,50.2-2,13-1.1,25.6-.4,38.7l-10.3,6.7c-1.7-.4-4.1-14.1-4.4-16.6-6.4-48.2,21-84.8,69.9-88.4l-20,9.5ZM546.7,569.4c-.5,2.8-1.3,5.5-2.2,8,.9-3.2,1.7-6.4,2.5-9.7,0,.6-.2,1.1-.3,1.7ZM619.1,490.3c-1.2-.8,17.5-19.8,19-21.5,13.1-15.7,22-35.3,42-43.5,0,36-22.9,66.7-61,65ZM887.1,406.3c36.4,4.9,74.8,8.1,110-4.5-29.5,29.4-78.5,33-110,4.5ZM1567.8,338.5c-.9,3.3-2.1,8.7-4.7,10.8.8-29.9-6.5-59.3-21.5-85,28.1,15.4,34,44.7,26.2,74.2ZM1414.9,506c-39-3.7-72.6-32.3-74.8-72.7,12,7.4,23.6,12.7,33,23.5,14.4,16.6,24.1,38.6,45,48.5.2,1.9-2.1.8-3.2.7Z"/><path class="cls-1" d="M598.4,378.5c-28.5-10.4-41.3-43.7-36.3-72.2-17.8,22.8-12.8,59.4,10.1,77.4,26,20.5,60.1,13.6,79.9-11.4-17,7.8-35.3,12.9-53.7,6.2Z"/><path class="cls-1" d="M917.6,163.3c10.4,10.2,29.5,25.6,32,41-14.4-16.1-32-27.2-54-29-19.1-1.5-45.2,4.6-60.4,16.6-13.5,12.4-15,17.6,2.5,5.5,38.1-17.7,90.9-3.7,105.1,38.7,12.8,42.9-44.6,85.2,6.3,115.2-22.2-35.1,2.5-60.8,21.5-88,19.2-42.1-7-93.5-53-100Z"/><path class="cls-1" d="M701.7,287.4c-20.1,28.8-26.5,90.4,4.4,112.9-6.1-14.1-10.4-24.6-9-40.5,2.2-37.2,41.5-48.8,71-47-13.1-17-40.5-13.3-57-3.5,21.5-43.4,90.3-39.9,114,1-5.4-64.4-90-69-123.4-22.9ZM709.6,311.3v-1c.6.3.6.7,0,1Z"/><path class="cls-1" d="M1587.1,550.3c33.3-21.9,33.3-78.1-5-94,17.5,32.7,16.2,73.1-12.9,98.4,35.3,16.9,49,67,16.9,94.1,46.5-7.1,43.4-87.2,1-98.5Z"/><path class="cls-1" d="M1055.2,154.8c1.9,19,76.5,103.1-15.1,145.5,86.3,5.2,84-118.9,15.1-145.5Z"/><path class="cls-1" d="M1208.3,280c-13.6,20.1-20.5,65.6-.2,82.3-13.7-56,46.7-124.3,99.9-81.4,30.1,17.4-48.6-76.5-99.7-.9Z"/><path class="cls-1" d="M1473,332.7c1.1-11.9-3.5-31.7-15.9-36.4,12,28.9-.3,65.6-34.6,68.9-31.9-6.4-86.7-9.8-73.5,39.7,24.5-66.6,102.2,26.6,124-72.2Z"/><path class="cls-1" d="M1231.1,178.8c15.2,63.2,16.3-49.1-23-59-31-18.8-73.6-11.2-93,20,42.3-21.4,98-15.6,116,38.9Z"/><path class="cls-1" d="M1369.1,229.8c1.3,3.1-2.5,20.1,2.2,15.2,37.6-75.5-94.2-122.6-107.8-38.7,29.5-45.2,98.7-30.7,105.5,23.5Z"/><path class="cls-1" d="M585.3,462c-47,48.3-108.2,3-99.2-55.7-42.1,77.3,85.9,134,99.2,55.7Z"/><path class="cls-1" d="M545.8,554.5c-26.1,55.8-128.9,61.9-86.2,141.8-26.9-74.7,105.4-84.7,86.2-141.8Z"/><path class="cls-1" d="M850.1,278.9c-7.6-27.6-39.7-41.2-65.9-32.5,18.8,4.2,41.9,8.5,48.5,31,5.1,34.4-11.6,81.1,33.5,95-29.6-26-10-61.1-16.1-93.4Z"/><path class="cls-1" d="M691.1,239.3c-.9-57.6,55.5-100.4,110-74-47.7-54.3-142.4,10.8-110,74Z"/><path class="cls-1" d="M909.1,91.8c17.8-10.4,40.1-14.4,60-10.5-52.8-38.8-127,22.1-107.5,82,4.6-29.6,21.2-56.7,47.5-71.5Z"/><path class="cls-1" d="M1511.1,491.8c29.9,1.1,61.1-73.2,24.5-31.5-27.2,23-64.3,13.1-88.5-9,5.2,28.7,36.1,46.8,64,40.5Z"/><path class="cls-1" d="M1219.1,221.3c-91.6-30.7-95.9,138.3-73.7,77.8,7-37.3,34-73.4,73.7-77.8Z"/><path class="cls-1" d="M1483.1,543.3c-5.4,43.2,56.1,82.2,96,53.5-39.9,1-78.6-15.6-96-53.5Z"/><path class="cls-1" d="M479.1,561.3c-39.1-2.1-52.2-44.7-39-77-40.6,26.3-9.1,102.6,39,77Z"/><path class="cls-1" d="M452.1,745.3c38.3,6.8,75.3-36.2,68.5-73-11.5,34.6-40.5,53-68.5,73Z"/><path class="cls-1" d="M1523.6,637.3c14.3,33.9,7.8,72-8.5,104,33.7-22,43.1-77.7,8.5-104Z"/><path class="cls-1" d="M1519.6,412.3c14.8-14.6,24.4-74.5-4.5-71.5,11,15.7-11.3,94.4,4.5,71.5Z"/><path class="cls-1" d="M1490.4,297.5c52,18.3-25.9-50.2-57.3-20.7,22.3-1.4,38.4,12.4,57.3,20.7Z"/><path class="cls-1" d="M1059.1,189.3c-6,28.5-10.2,35.4-27,61,29.7.8,40.5-38.8,27-61Z"/><path class="cls-1" d="M1196.1,70.8c63.7,30.6-45.3-60.3-90-2-17.3,13.8,56-21.9,90,2Z"/><path class="cls-1" d="M1056.6,187.3v1c.6-.3.6-.7,0-1Z"/><path class="cls-1" d="M802.6,165.3v1c.6-.3.6-.7,0-1Z"/><path class="cls-1" d="M764.1,126.8c-28.6-18.4-69.1-12.9-89,15.5,26.6-16,58.6-24,89-15.5Z"/></g></svg>